<?xml version="1.0" standalone="no"?>
<!DOCTYPE svg PUBLIC "-//W3C//DTD SVG 20010904//EN"
 "http://www.w3.org/TR/2001/REC-SVG-20010904/DTD/svg10.dtd">
<svg version="1.0" xmlns="http://www.w3.org/2000/svg"
 width="747.000000pt" height="1280.000000pt" viewBox="0 0 747.000000 1280.000000"
 preserveAspectRatio="xMidYMid meet">
<g transform="translate(0.000000,1280.000000) scale(0.100000,-0.100000)"
fill="#000000" stroke="none">
<path d="M3440 12580 c-263 -33 -613 -127 -900 -242 -392 -158 -804 -405
-1079 -647 -207 -183 -550 -600 -763 -928 -33 -51 -175 -327 -206 -401 -170
-406 -261 -750 -297 -1122 -39 -396 14 -915 134 -1318 101 -339 260 -696 446
-997 13 -22 37 -62 51 -90 26 -49 146 -244 270 -440 273 -431 440 -754 534
-1035 75 -226 106 -391 120 -650 20 -370 40 -454 141 -605 37 -55 87 -123 111
-151 24 -28 64 -79 91 -113 26 -34 63 -69 82 -78 38 -18 46 -33 16 -33 -52 0
-37 -205 24 -334 20 -43 25 -68 25 -134 0 -93 13 -116 101 -172 l50 -33 -7
-66 c-4 -36 -13 -84 -21 -105 -7 -22 -11 -46 -9 -55 3 -11 -13 -25 -57 -46
-99 -48 -88 -84 52 -177 39 -27 41 -30 41 -80 -1 -29 -8 -71 -16 -93 -9 -22
-18 -52 -21 -66 -4 -20 -18 -32 -56 -50 -46 -22 -52 -28 -50 -53 3 -34 39 -75
104 -117 26 -16 49 -39 52 -51 11 -41 -22 -168 -44 -168 -7 0 -9 -9 -5 -25 7
-27 -14 -43 -69 -55 -25 -5 -31 -11 -33 -36 -4 -39 32 -84 105 -131 48 -30 53
-37 53 -69 0 -53 -20 -121 -41 -140 -10 -9 -19 -23 -19 -29 0 -7 -7 -18 -15
-25 -22 -18 -18 -64 6 -86 12 -10 65 -71 118 -134 129 -155 189 -211 366 -345
180 -135 220 -176 228 -229 8 -53 28 -71 111 -100 127 -44 329 -124 386 -154
47 -25 59 -37 82 -86 34 -69 67 -91 162 -107 81 -13 311 -7 369 11 52 15 105
66 121 115 12 38 20 43 127 98 129 65 255 119 346 148 69 22 93 46 93 94 0 57
82 154 191 227 188 125 373 309 409 406 25 67 25 82 -1 82 -34 0 -18 31 29 56
102 54 152 112 152 177 0 29 -9 44 -56 88 -55 53 -94 113 -94 144 0 8 -4 15
-10 15 -22 0 -8 31 26 57 106 81 142 131 130 179 -4 13 -35 52 -69 86 -35 35
-69 79 -76 98 -7 19 -17 44 -23 54 -11 21 -17 15 97 110 51 42 80 95 70 127
-4 11 -33 46 -65 78 -40 40 -64 74 -76 110 -10 28 -22 51 -26 51 -5 0 -8 9 -8
19 0 12 16 29 43 44 24 14 62 46 85 71 56 61 56 95 2 167 -22 30 -40 59 -40
66 0 7 11 46 25 87 23 69 25 89 25 255 0 174 -1 181 -20 181 -35 0 -21 16 35
39 52 22 68 42 45 56 -5 3 -10 12 -10 18 0 7 52 82 115 167 125 169 176 250
217 347 50 116 60 192 69 543 9 349 17 423 68 613 77 285 212 594 437 1002
117 213 438 866 493 1005 206 519 305 1008 296 1460 -8 353 -75 773 -175 1084
-105 328 -302 717 -514 1016 -219 309 -520 612 -838 843 -470 342 -1096 590
-1738 688 -154 23 -506 34 -630 19z m657 -161 c178 -21 308 -46 452 -85 124
-34 176 -53 358 -135 84 -38 157 -69 161 -69 5 0 27 -13 49 -29 22 -16 54 -36
72 -45 18 -10 41 -26 52 -37 10 -10 28 -19 38 -19 19 0 36 -25 32 -47 -1 -7
80 -54 186 -106 203 -101 318 -173 428 -271 38 -35 92 -75 120 -89 27 -15 67
-45 90 -68 22 -23 66 -63 98 -89 82 -68 295 -295 359 -382 126 -172 254 -391
349 -600 28 -62 64 -140 79 -173 102 -222 221 -713 235 -971 12 -240 4 -614
-16 -724 -6 -30 -12 -64 -13 -75 -10 -61 -28 -152 -33 -165 -3 -8 -7 -26 -9
-40 -7 -51 -37 -150 -47 -150 -5 0 -7 -12 -4 -26 4 -24 -19 -121 -42 -169 -5
-11 -14 -40 -21 -65 -29 -111 -106 -283 -292 -660 -503 -1017 -536 -1085 -567
-1175 -11 -32 -28 -66 -37 -76 -9 -10 -14 -24 -11 -31 2 -7 -1 -24 -8 -38 -12
-22 -22 -49 -64 -170 -13 -37 -44 -147 -55 -193 -10 -42 -29 -22 -21 22 4 20
8 43 9 51 3 21 16 67 33 120 19 57 27 124 15 116 -21 -13 -97 -274 -134 -461
-16 -82 -20 -157 -25 -415 -3 -244 -9 -342 -24 -434 -11 -66 -17 -121 -14
-124 11 -12 54 111 65 187 14 91 21 99 22 23 0 -119 -46 -237 -143 -362 -28
-36 -60 -83 -71 -105 -12 -22 -38 -63 -59 -92 -22 -29 -39 -56 -39 -61 0 -5
-9 -17 -19 -26 -11 -10 -36 -44 -56 -76 -40 -64 -58 -74 -150 -85 -36 -5 -46
-4 -35 4 8 6 23 11 33 11 9 0 17 5 17 10 0 6 -20 10 -45 10 -38 0 -45 3 -45
20 0 11 4 20 8 20 5 0 18 9 30 20 30 28 30 76 0 86 -27 9 -266 8 -425 -2 -105
-7 -113 -6 -119 12 -16 48 -30 74 -40 78 -6 2 -29 -2 -50 -9 -22 -7 -64 -15
-94 -16 l-55 -3 -8 79 c-5 44 -8 103 -7 130 5 260 5 358 -2 535 -17 458 -20
489 -46 549 -9 20 -17 44 -18 54 -1 10 -16 49 -33 87 -18 38 -36 92 -40 121
-9 57 3 248 19 308 42 156 54 260 55 452 0 221 -2 229 -73 246 -37 9 -37 9
-34 59 5 80 32 173 221 741 227 683 431 1330 456 1443 10 47 54 179 183 548
14 40 33 79 44 86 23 17 61 112 78 199 13 63 13 68 -6 82 -34 26 -50 18 -72
-35 -12 -27 -26 -50 -32 -50 -7 0 -9 -8 -4 -22 4 -14 -32 -138 -114 -387 -67
-201 -146 -447 -176 -546 -167 -544 -207 -671 -500 -1555 -112 -336 -134 -416
-142 -522 -4 -43 -10 -81 -14 -83 -5 -3 -46 -1 -93 4 -168 17 -162 -10 -178
828 -6 347 -8 636 -5 642 4 6 20 11 36 11 56 0 133 22 157 46 53 53 8 126 -88
139 -29 4 -56 11 -59 15 -3 4 -32 3 -65 -2 -33 -5 -69 -9 -80 -8 -59 6 -261
-2 -269 -10 -6 -6 -15 -5 -23 2 -10 8 -20 8 -39 0 -18 -9 -29 -9 -43 -1 -12 8
-39 9 -87 3 -38 -5 -76 -9 -84 -9 -25 0 -80 -62 -80 -90 0 -83 77 -126 167
-93 21 8 36 8 42 3 13 -14 34 -1250 22 -1300 -7 -29 -25 -54 -68 -94 -57 -54
-173 -117 -198 -107 -8 3 -15 35 -20 82 -9 96 -50 245 -108 389 -51 127 -180
440 -262 635 -31 74 -126 304 -211 510 -199 484 -240 581 -280 660 -109 219
-354 752 -354 772 0 25 -32 23 -55 -2 -22 -24 -19 -36 53 -195 46 -103 67
-135 87 -135 6 0 31 -42 55 -92 24 -51 75 -156 112 -233 37 -77 68 -148 68
-158 0 -10 19 -62 41 -115 23 -53 71 -169 107 -257 35 -88 75 -185 87 -215 13
-30 48 -116 78 -190 81 -200 214 -515 226 -536 5 -11 19 -45 30 -76 12 -32 37
-91 56 -132 19 -41 35 -79 35 -86 0 -6 9 -28 20 -48 49 -92 133 -352 150 -466
l11 -76 -41 -48 c-138 -156 -142 -331 -17 -643 70 -172 83 -299 43 -426 -37
-116 -56 -212 -54 -268 1 -27 -4 -84 -11 -125 -11 -62 -11 -163 -1 -577 7
-276 9 -506 5 -512 -13 -21 -25 0 -25 44 0 76 -13 87 -77 65 -37 -13 -66 -60
-57 -94 11 -45 -23 -51 -276 -50 -144 1 -235 5 -254 13 -27 11 -28 10 -22 -14
7 -27 -3 -32 -22 -13 -28 28 -18 -2 18 -57 22 -33 37 -61 35 -64 -8 -7 -55 41
-55 55 0 19 -29 44 -51 44 -14 0 -19 -7 -19 -25 0 -14 -4 -25 -10 -25 -19 0
-10 -19 12 -26 17 -5 18 -8 7 -15 -26 -14 -87 7 -133 47 -51 44 -196 220 -196
237 0 7 -20 37 -45 67 -25 30 -45 62 -45 71 0 8 -13 36 -30 60 -41 62 -58 148
-65 324 -14 362 -55 697 -91 752 -7 12 -11 28 -8 36 3 8 1 18 -4 21 -6 3 -8
15 -5 26 3 11 -4 38 -16 60 -11 22 -20 44 -19 48 3 7 -17 65 -33 94 -5 10 -9
29 -9 42 0 13 -7 26 -15 30 -9 3 -15 19 -15 41 0 19 -4 35 -9 35 -5 0 -19 20
-31 45 -12 25 -25 45 -30 45 -4 0 -10 10 -14 23 -3 13 -36 76 -73 140 -37 65
-82 143 -99 173 -17 31 -36 59 -41 63 -6 3 -13 16 -17 28 -4 12 -31 61 -60
110 -29 48 -58 102 -65 120 -7 18 -21 35 -31 38 -10 3 -36 43 -59 90 -23 46
-46 87 -51 90 -10 6 -60 112 -60 127 0 6 -11 19 -25 30 -14 11 -25 25 -25 31
0 7 -27 49 -59 95 -33 45 -62 95 -66 111 -3 16 -15 37 -26 47 -10 9 -19 24
-20 33 0 9 -13 39 -29 66 -35 59 -90 170 -90 179 0 4 -11 24 -25 44 -14 20
-25 43 -25 50 0 8 -6 28 -14 45 -45 99 -56 128 -56 145 0 11 -7 33 -15 48 -8
16 -15 36 -15 45 0 8 -9 34 -20 57 -11 22 -20 49 -20 59 0 10 -11 50 -24 88
-13 39 -29 95 -36 125 -7 30 -17 60 -22 67 -6 7 -12 34 -14 60 -5 69 -23 208
-36 278 -11 67 -12 77 -24 260 -19 291 -3 494 66 820 43 208 137 485 250 740
34 77 74 169 90 205 72 170 185 369 263 465 202 245 457 507 567 581 111 74
290 171 510 275 234 110 286 136 410 205 61 34 136 65 211 87 79 23 123 42
140 59 15 15 56 35 95 47 38 12 110 33 159 48 70 21 84 28 61 31 -16 2 -33 -1
-39 -7 -6 -6 -24 -11 -40 -11 -32 0 -113 -21 -196 -51 -51 -19 -82 -18 -51 1
22 14 224 77 300 94 324 74 645 88 997 45z m-179 -4476 c5 -10 13 -281 16
-603 6 -476 10 -597 23 -648 8 -35 13 -65 10 -68 -2 -3 -20 4 -38 15 -77 45
-191 49 -231 9 -17 -17 -22 -18 -29 -7 -13 21 -11 26 12 32 17 5 19 11 15 39
-3 18 -8 197 -11 398 -3 201 -8 472 -11 602 l-7 237 109 4 c60 1 114 4 121 5
7 1 16 -6 21 -15z m-16 -1347 c14 -8 43 -19 63 -26 32 -11 36 -15 30 -39 -5
-24 -1 -29 40 -49 61 -30 70 -28 18 4 -48 28 -47 27 -33 55 11 19 60 27 60 10
0 -40 122 -91 216 -91 41 0 74 -23 74 -52 0 -10 -9 -44 -20 -75 -24 -70 -28
-194 -6 -212 8 -7 20 -43 27 -80 12 -68 12 -68 -19 -112 -54 -79 -74 -92 -127
-85 -40 6 -48 12 -63 44 -13 27 -25 38 -47 42 -25 4 -31 11 -33 35 -9 84 -57
216 -86 237 -15 10 -255 8 -285 -3 -14 -6 -55 -38 -90 -72 -66 -64 -111 -141
-111 -190 0 -41 -17 -67 -43 -67 -13 0 -28 -5 -33 -10 -15 -15 -101 0 -129 22
-20 16 -25 28 -25 66 1 26 5 67 9 90 6 28 3 94 -6 180 -7 74 -10 138 -6 142 4
4 26 16 48 27 22 10 60 30 85 42 289 149 283 146 337 144 39 -1 55 3 69 18 20
22 49 24 86 5z m29 -487 c51 -51 61 -141 31 -258 -17 -63 -18 -64 -62 -78 -27
-8 -78 -12 -127 -10 -72 3 -85 7 -102 28 -33 39 -52 87 -58 143 -9 87 29 134
137 169 100 33 152 35 181 6z m-542 -698 c6 -10 22 -22 36 -25 14 -4 25 -14
25 -24 1 -24 43 -52 93 -60 l42 -8 6 -204 c4 -112 9 -397 10 -634 l4 -431 -87
-3 -87 -3 -12 -41 c-11 -43 -4 -58 35 -71 7 -3 5 -11 -5 -23 -9 -10 -19 -27
-22 -37 -9 -24 -54 -44 -69 -29 -6 6 -11 70 -13 166 -1 86 -5 159 -9 163 -3 3
-6 -44 -6 -105 0 -104 -2 -113 -25 -139 -19 -22 -27 -25 -34 -14 -11 17 -25
736 -18 981 3 151 8 199 26 260 36 121 72 141 65 36 -2 -38 -1 -46 7 -34 5 10
11 81 12 158 1 77 5 140 9 140 4 0 12 -8 17 -19z m936 -299 c-5 -199 -4 -285
4 -300 13 -24 17 -791 4 -802 -12 -9 -201 4 -211 15 -14 15 -35 1266 -22 1279
6 6 27 16 48 22 20 7 64 24 97 38 33 14 66 26 74 26 11 0 12 -47 6 -278z m80
188 c30 -72 42 -237 55 -745 12 -481 14 -635 7 -641 -3 -3 -15 4 -26 15 -13
13 -34 21 -53 21 -34 0 -29 15 7 22 18 4 17 6 -7 18 l-28 13 -2 391 c-1 215
-2 409 -1 431 0 22 1 152 2 288 2 166 6 247 13 245 5 -2 20 -28 33 -58z m-554
-20 l111 0 -5 -27 c-3 -16 -1 -301 5 -636 6 -334 8 -610 5 -614 -4 -3 -24 0
-44 8 -48 18 -159 11 -173 -11 -5 -8 -11 -37 -11 -65 -6 -144 -18 339 -15 570
2 149 0 277 -4 285 -4 8 -10 130 -12 271 -4 246 -4 255 14 237 15 -15 35 -18
129 -18z"/>
<path d="M3540 12310 c0 -5 9 -10 19 -10 11 0 23 5 26 10 4 6 -5 10 -19 10
-14 0 -26 -4 -26 -10z"/>
<path d="M3308 12283 c6 -2 18 -2 25 0 6 3 1 5 -13 5 -14 0 -19 -2 -12 -5z"/>
<path d="M4260 12280 c0 -5 5 -10 11 -10 5 0 7 5 4 10 -3 6 -8 10 -11 10 -2 0
-4 -4 -4 -10z"/>
<path d="M4333 12273 c9 -2 23 -2 30 0 6 3 -1 5 -18 5 -16 0 -22 -2 -12 -5z"/>
<path d="M3685 12140 c-3 -5 -1 -18 4 -27 9 -16 10 -14 11 10 0 28 -5 34 -15
17z"/>
<path d="M3584 12083 c6 -48 12 -61 22 -50 10 10 -6 97 -18 97 -7 0 -9 -16 -4
-47z"/>
<path d="M3316 12072 c-10 -17 2 -102 15 -102 10 0 11 19 1 75 -5 27 -10 36
-16 27z"/>
<path d="M5190 11980 c0 -5 7 -10 15 -10 8 0 15 5 15 10 0 6 -7 10 -15 10 -8
0 -15 -4 -15 -10z"/>
<path d="M2862 11437 c-18 -10 -110 -54 -205 -97 -96 -42 -212 -100 -258 -127
-46 -28 -121 -72 -165 -99 -131 -79 -281 -199 -397 -318 -113 -116 -181 -210
-280 -386 -132 -233 -147 -262 -173 -322 -14 -35 -32 -74 -40 -88 -28 -52 -87
-209 -114 -300 -33 -109 -82 -326 -87 -385 -3 -22 -7 -47 -10 -55 -3 -8 -5
-27 -4 -43 2 -16 -3 -29 -12 -33 -11 -4 -12 -14 -6 -47 11 -59 10 -213 -2
-266 -8 -34 -7 -46 4 -55 13 -10 24 -84 32 -223 1 -17 14 -46 28 -63 25 -29
27 -39 27 -116 0 -77 4 -97 51 -222 28 -75 52 -144 53 -152 2 -8 9 -28 16 -45
149 -335 274 -554 383 -671 38 -41 74 -74 81 -74 8 0 99 55 125 76 1 1 -28 40
-67 86 -125 150 -197 275 -355 623 -71 157 -88 203 -136 370 -46 162 -57 230
-41 249 8 10 7 15 -5 20 -17 6 -21 71 -5 81 16 10 12 62 -5 69 -18 6 -21 71
-4 82 8 5 6 10 -5 16 -13 7 -16 27 -16 109 0 72 4 101 13 105 10 3 11 28 5
112 -8 96 -7 108 9 120 14 10 15 16 5 32 -9 16 -9 21 4 28 11 6 13 11 5 16 -6
4 -11 16 -11 27 0 17 29 115 47 159 3 8 5 19 4 24 -4 19 42 138 56 143 10 4
11 8 4 13 -8 4 4 43 35 116 25 60 54 132 65 159 10 28 43 91 72 140 29 50 65
119 81 155 16 36 41 79 56 95 15 17 47 64 69 105 33 59 78 112 214 248 95 96
208 201 251 233 75 57 263 159 291 159 7 0 15 5 17 11 4 12 268 91 284 85 6
-3 17 1 23 7 6 6 33 11 61 11 44 1 50 3 50 22 0 12 -7 24 -15 28 -9 3 -15 18
-15 40 0 32 -2 35 -28 33 -16 -1 -43 -10 -60 -20z"/>
<path d="M5706 10639 c-20 -33 -36 -63 -36 -67 0 -3 72 -79 160 -167 88 -89
160 -169 160 -177 0 -9 4 -18 9 -20 4 -1 43 -64 86 -138 121 -208 126 -218
129 -243 1 -12 5 -27 8 -33 9 -14 81 -236 83 -254 1 -8 7 -26 14 -39 20 -36
27 -137 10 -157 -11 -13 -10 -17 4 -25 21 -12 24 -89 5 -120 -11 -17 -10 -22
4 -30 24 -14 24 -205 0 -218 -14 -8 -15 -12 -4 -22 19 -20 15 -86 -5 -98 -15
-8 -16 -12 -5 -22 15 -16 16 -85 1 -94 -6 -4 -8 -14 -5 -22 11 -27 -25 -227
-43 -242 -12 -10 -13 -15 -3 -18 12 -5 17 -35 6 -46 -3 -3 -8 -31 -10 -62 -2
-31 -7 -61 -10 -66 -3 -6 -8 -31 -10 -57 -3 -53 -161 -477 -222 -600 -132
-266 -229 -464 -249 -512 -25 -58 -215 -671 -210 -676 2 -2 55 135 118 303 62
169 121 314 129 323 8 9 16 29 17 45 0 17 89 226 196 465 177 396 204 462 291
732 53 163 96 311 96 327 0 17 7 34 16 39 11 6 13 11 5 16 -16 11 -13 44 5 54
11 6 13 11 5 16 -6 4 -11 33 -11 66 0 44 4 61 16 68 14 8 15 14 5 42 -6 18
-11 73 -11 122 0 49 -5 121 -11 159 -8 51 -8 74 0 83 9 10 8 15 -2 19 -9 3
-18 38 -27 99 -12 91 -114 408 -161 500 -11 21 -17 38 -13 38 3 0 -3 15 -14
33 -11 17 -46 87 -76 155 -48 106 -75 148 -188 295 -73 94 -152 197 -174 229
l-41 58 -37 -61z"/>
<path d="M5422 10336 l-67 -65 76 -78 c71 -72 159 -193 159 -216 0 -6 7 -18
15 -27 46 -50 195 -439 195 -506 0 -26 5 -44 13 -47 13 -5 47 -139 47 -182 0
-11 2 -35 6 -54 5 -23 2 -36 -7 -42 -12 -8 -11 -11 4 -20 20 -12 22 -31 5 -60
-11 -17 -10 -22 5 -30 13 -8 17 -24 17 -74 0 -36 -5 -85 -12 -110 -11 -40 -10
-46 6 -58 15 -11 17 -23 12 -92 -6 -76 -7 -131 -5 -220 1 -22 -5 -53 -12 -70
-7 -16 -11 -35 -10 -42 1 -6 -8 -34 -19 -62 -11 -29 -20 -69 -20 -91 0 -21 -4
-41 -9 -44 -5 -3 -7 -15 -4 -26 6 -24 -19 -89 -108 -279 -17 -35 -37 -83 -45
-108 -8 -24 -46 -101 -85 -172 -38 -71 -73 -149 -78 -175 -5 -26 -15 -52 -23
-59 -8 -7 -23 -34 -33 -61 -10 -27 -26 -57 -36 -67 -11 -11 -19 -33 -19 -54 0
-21 -6 -37 -16 -43 -11 -6 -13 -11 -5 -16 13 -9 15 -62 2 -70 -5 -3 -7 -14 -4
-24 4 -16 -13 -70 -62 -197 -5 -11 -7 -24 -6 -29 1 -5 -1 -16 -5 -25 -4 -9 -8
-25 -9 -36 -2 -11 -13 -60 -24 -108 -12 -49 -21 -106 -21 -127 0 -26 -6 -42
-16 -48 -11 -6 -13 -11 -5 -16 18 -11 13 -74 -6 -85 -14 -7 -15 -12 -5 -24 15
-18 6 -97 -12 -112 -18 -15 -15 -177 3 -191 14 -11 12 -78 -5 -178 -5 -30 -3
-41 10 -48 23 -13 23 -133 0 -146 -14 -8 -15 -21 -11 -78 18 -212 19 -232 9
-238 -6 -3 -8 -24 -5 -48 5 -32 2 -44 -11 -54 -14 -10 -15 -17 -7 -33 6 -11
11 -72 11 -136 0 -94 -3 -117 -15 -121 -17 -7 -20 -40 -5 -49 18 -11 12 -83
-7 -94 -15 -8 -16 -12 -5 -22 18 -19 15 -86 -5 -97 -14 -8 -15 -16 -5 -65 13
-67 5 -100 -44 -180 -20 -32 -33 -61 -30 -65 10 -10 136 127 136 148 0 11 11
54 25 97 15 48 25 102 25 140 0 49 4 64 18 72 14 8 15 12 5 22 -17 17 -17 58
0 65 20 7 20 311 1 318 -19 7 -20 184 -1 191 9 4 11 57 9 233 -2 125 -6 274
-8 331 -3 56 -3 110 1 119 3 9 7 57 9 107 1 49 8 104 16 120 7 17 12 44 11 62
-2 20 3 34 14 41 14 7 15 13 6 30 -22 40 -13 82 24 119 20 20 39 52 46 76 6
23 21 71 34 107 12 36 28 101 35 145 18 121 18 121 45 153 14 17 25 41 25 54
0 53 44 175 105 293 36 68 65 133 65 144 0 11 6 26 13 33 13 15 27 36 55 81
50 83 75 117 88 117 17 0 19 31 3 47 -8 8 -4 23 11 54 12 23 24 63 25 89 2 28
16 70 35 106 18 32 39 71 47 87 8 15 20 27 26 27 8 0 7 4 -1 12 -13 13 -17
130 -5 142 4 4 8 21 9 39 1 18 7 46 14 62 7 17 12 34 11 40 -1 5 5 15 14 21
12 9 14 17 7 31 -11 21 0 542 12 562 5 7 1 17 -10 25 -13 10 -16 22 -11 48 3
20 2 40 -2 44 -16 17 -29 117 -20 148 13 46 11 83 -6 90 -9 3 -15 18 -15 35 0
17 -12 61 -26 98 -14 38 -23 78 -21 90 3 15 -5 31 -25 50 -34 32 -60 81 -52
95 4 6 1 14 -6 18 -6 4 -31 49 -54 101 -45 99 -185 316 -231 359 -15 14 -43
46 -62 73 -19 26 -39 47 -45 47 -6 0 -40 -29 -76 -64z"/>
<path d="M4480 9586 c0 -32 -3 -35 -39 -41 -50 -8 -108 3 -116 22 -5 14 -8 14
-23 1 -9 -8 -28 -13 -42 -11 -44 6 -164 6 -205 0 -22 -4 -53 -9 -70 -11 -40
-7 -103 -16 -140 -21 -16 -2 -46 -7 -65 -10 -19 -3 -48 -7 -65 -9 -56 -8 -120
-16 -165 -22 -25 -3 -61 -7 -80 -9 -19 -2 -66 -7 -105 -11 -38 -4 -118 -8
-177 -8 -87 -1 -110 2 -125 16 -12 11 -23 14 -29 8 -6 -6 -29 -4 -62 6 -39 12
-52 20 -52 35 0 23 -25 26 -34 3 -4 -9 -13 -13 -23 -10 -28 9 -299 53 -405 66
-136 17 -305 10 -341 -14 -27 -18 -27 -19 -7 -33 15 -11 28 -12 57 -4 77 22
278 6 563 -44 180 -32 177 -31 195 -86 10 -28 23 -49 31 -49 11 0 10 8 -6 41
-12 23 -20 42 -18 44 2 1 27 6 57 10 46 6 53 5 48 -8 -9 -23 17 -41 32 -23 8
10 24 13 44 10 63 -10 200 -4 372 16 44 5 103 12 130 15 28 3 77 10 110 16 33
6 74 13 90 15 17 2 59 8 95 13 191 30 266 35 335 22 33 -6 71 -20 85 -31 14
-12 48 -31 75 -45 l50 -24 15 22 c42 59 30 56 300 83 140 14 308 27 372 28 65
1 120 5 124 8 3 4 1 16 -6 27 -10 19 -19 21 -103 21 -51 -1 -216 -14 -367 -29
-151 -16 -278 -26 -282 -24 -5 2 -8 17 -8 34 0 16 -4 29 -10 29 -5 0 -10 -15
-10 -34z"/>
<path d="M1551 7114 c0 -11 3 -14 6 -6 3 7 2 16 -1 19 -3 4 -6 -2 -5 -13z"/>
<path d="M1593 7024 l32 -66 6 39 c4 33 1 41 -25 65 -17 15 -34 28 -38 28 -4
0 7 -30 25 -66z"/>
<path d="M5530 6301 c0 -6 5 -13 10 -16 6 -3 10 1 10 9 0 9 -4 16 -10 16 -5 0
-10 -4 -10 -9z"/>
<path d="M5487 5618 c8 -72 13 -73 13 -5 0 32 -4 57 -10 57 -5 0 -7 -22 -3
-52z"/>
<path d="M2382 5518 c1 -16 5 -31 10 -34 15 -9 9 -63 -9 -73 -14 -7 -15 -12
-4 -25 9 -10 11 -36 7 -83 -2 -37 -5 -87 -5 -111 0 -23 -3 -48 -7 -54 -4 -6
-6 -36 -5 -65 2 -40 -1 -54 -13 -59 -14 -5 -16 -32 -15 -187 0 -128 4 -184 12
-189 7 -4 12 -32 13 -63 0 -30 4 -58 7 -62 4 -3 7 -14 7 -24 0 -32 49 -161 69
-183 12 -12 21 -26 22 -32 0 -5 18 -24 40 -43 30 -26 44 -32 65 -27 l25 7 -30
34 c-16 19 -41 54 -55 78 -52 89 -91 252 -67 281 12 15 12 42 -5 261 -5 67 -3
81 11 91 15 11 16 18 6 45 -16 47 -14 118 4 125 11 5 12 10 3 24 -6 10 -8 25
-3 36 4 11 7 31 6 47 -2 17 3 29 13 33 12 5 14 10 6 19 -14 17 -2 96 16 111
18 14 9 67 -15 88 -9 8 -37 25 -63 39 l-47 25 1 -30z"/>
<path d="M5450 4943 l0 -337 21 23 c20 21 20 29 15 274 -6 278 -13 377 -27
377 -5 0 -9 -141 -9 -337z"/>
<path d="M3850 6580 c0 -5 7 -10 16 -10 8 0 12 5 9 10 -3 6 -10 10 -16 10 -5
0 -9 -4 -9 -10z"/>
<path d="M3333 4814 c-3 -8 -1 -20 6 -27 8 -8 11 -4 11 16 0 30 -7 35 -17 11z"/>
<path d="M3360 4131 c0 -74 10 -102 23 -67 8 19 -4 136 -14 142 -5 3 -9 -31
-9 -75z"/>
<path d="M3341 4184 c0 -11 3 -14 6 -6 3 7 2 16 -1 19 -3 4 -6 -2 -5 -13z"/>
</g>
</svg>
